<?xml version="1.0" encoding="utf-8"?>
<!-- Generator: Adobe Illustrator 26.0.3, SVG Export Plug-In . SVG Version: 6.00 Build 0)  -->
<svg version="1.1" xmlns="http://www.w3.org/2000/svg" xmlns:xlink="http://www.w3.org/1999/xlink" x="0px" y="0px"
	 viewBox="0 0 200 50" style="enable-background:new 0 0 200 50;" xml:space="preserve">
<style type="text/css">
	.st0{fill:#FFFFFF;}
	.st1{fill:#F8B032;}
</style>
<g id="Capa_1">
</g>
<g id="Logo">
	<g>
		<g>
			<g>
				<path class="st0" d="M8.8,21.4c-5.4,0-8.4-3.1-8.4-8.7c0-5.1,2.7-9.3,9-9.3c1.4,0,2.9,0.2,4.3,0.5l-0.2,1.7C12,5.2,10.5,5,9.1,5
					c-4.6,0-6.7,3.4-6.7,7.6c0,4.7,2.3,7.3,6.9,7.3c1.5,0,3.2-0.4,4.4-1l0.2,1.6C12.5,21.1,10.8,21.4,8.8,21.4z"/>
				<path class="st0" d="M25.2,21.5c-4.5,0-7-2.1-7-6.2V3.6h1.8v11.5c0,3.3,2,4.8,5.4,4.8c4,0,5.4-2.2,5.4-5.3v-11h1.8v11
					C32.6,18.2,30.5,21.5,25.2,21.5z"/>
				<path class="st0" d="M46.5,21.2l-7-8.2h-0.1v8.2h-1.8V3.6c0.9,0,2.2-0.1,4.2-0.1c3.9,0,6,1.6,6,4.3c0,3.3-2.7,5.1-6.2,5.1
					c0.5,0.5,1.1,1.1,1.7,1.8l5.7,6.4H46.5z M41.6,5c-1,0-1.6,0-2.1,0.1v6.5c0.6,0.1,1.4,0.1,2.2,0.1c2.6,0,4.2-1.4,4.2-3.6
					S44.3,5,41.6,5z"/>
				<path class="st0" d="M61.7,21.2l-7-8.2h-0.1v8.2h-1.8V3.6c0.9,0,2.2-0.1,4.2-0.1c3.9,0,6,1.6,6,4.3c0,3.3-2.7,5.1-6.2,5.1
					c0.5,0.5,1.1,1.1,1.7,1.8l5.7,6.4H61.7z M56.8,5c-1,0-1.6,0-2.1,0.1v6.5c0.6,0.1,1.4,0.1,2.2,0.1c2.6,0,4.2-1.4,4.2-3.6
					S59.4,5,56.8,5z"/>
				<path class="st0" d="M67.9,21.2V3.6H77V5h-7.2v6.4h6.9v1.4h-6.9v6.9H77v1.5H67.9z"/>
				<path class="st0" d="M93.5,21.2l-8-12c-0.8-1.3-1.6-2.5-2.2-3.7h0c0.1,1.3,0.2,2.8,0.2,5.2l0,10.5h-1.8V3.6H84l7.9,11.9
					c0.8,1.2,1.6,2.5,2.3,3.7h0c-0.1-1.3-0.2-3.6-0.2-6.9l0-8.6h1.8v17.6H93.5z"/>
				<path class="st0" d="M107.6,21.4c-5.4,0-8.4-3.1-8.4-8.7c0-5.1,2.7-9.3,9-9.3c1.4,0,2.9,0.2,4.3,0.5l-0.2,1.7
					c-1.5-0.5-3-0.7-4.4-0.7c-4.6,0-6.7,3.4-6.7,7.6c0,4.7,2.3,7.3,6.9,7.3c1.5,0,3.2-0.4,4.4-1l0.2,1.6
					C111.3,21.1,109.6,21.4,107.6,21.4z"/>
				<path class="st0" d="M121.8,14.8v6.4H120v-6.4l-6.1-11.2h2l3.4,6.5c0.6,1.1,1.1,2.1,1.5,3.2h0c0.5-1.2,1.1-2.3,1.7-3.5l3.4-6.2
					h1.9L121.8,14.8z"/>
				<path class="st0" d="M135.5,21.3c-1.2,0-3.3,0-5.7-0.1V3.6c1.7,0,4.1-0.1,6.5-0.1c4.5,0,6.4,1.7,6.4,4.3c0,1.8-1.1,3.3-2.9,4v0
					c2.1,0.5,3.2,2.1,3.2,4C142.9,18.2,141.3,21.3,135.5,21.3z M135.5,6.1c-0.7,0-1.5,0-2.1,0V11c0.6,0,1.2,0,1.4,0
					c2.4,0,3.9-0.8,3.9-2.6C138.7,7.1,138,6.1,135.5,6.1z M135,13.3c-0.4,0-1.1,0-1.6,0v5.1c0.5,0.1,1.2,0.1,2.1,0.1
					c2.4,0,3.6-1.2,3.6-2.8C139,14,137.4,13.3,135,13.3z"/>
				<path class="st0" d="M146.3,21.2V3.6h3.7v17.6H146.3z"/>
				<path class="st0" d="M163.1,21.2l-5-7.2h-0.2v7.2h-3.7V3.6c1.3-0.1,3.6-0.1,5.8-0.1c4.2,0,6.6,1.6,6.6,4.9c0,2.9-2,4.6-4.8,5
					c0.4,0.5,0.9,1.2,1.4,1.9l4.4,5.9H163.1z M159.4,6.3c-0.6,0-1.1,0-1.6,0.1v5.1c0.5,0,1.1,0.1,1.7,0.1c1.9,0,3.2-1.1,3.2-2.8
					C162.7,7.2,161.5,6.3,159.4,6.3z"/>
				<path class="st0" d="M175.5,21.3c-2.2,0-4-0.1-5.5-0.1V3.6c1.6,0,4.3-0.1,6.4-0.1c5.8,0,9.5,2.5,9.5,8.6
					C185.9,18.5,181.4,21.3,175.5,21.3z M176,6.5c-0.7,0-1.6,0-2.3,0.1v11.6c0.5,0,1.4,0.1,2.2,0.1c3.6,0,6.2-1.9,6.2-5.9
					C182,8.5,180,6.5,176,6.5z"/>
			</g>
		</g>
		<g id="PAJARO_x5F_NEW_00000016055572252503466360000002168158926311872190_">
			<g>
				<g>
					<path class="st1" d="M181.1,35.1c1.6-0.4,4.3-0.2,6,1.3c0.4,0.3,0.8,0.3,1.3,0.4c2.1,0.3,4.5,1.1,4.7,1.7
						c0,0.1-5.9,0.1-6.6,0.6c-3.3,2.8-12.3,6.1-19.5,5.4c-3.5-0.3-4.2-0.7-7.1-0.1c-2.8,0.5-11.4,3.5-10.9,3.2
						c0.4-0.3,15.5-6.8,14.2-9.5c-0.6-1.2-4.2-4.2-10.2-4.8c-5.1-0.5-10.1-1.1-16.1-2.6c-4.5-1.1-5.2-2.6-5.2-2.6s1.2,1.2,8.9,2.6
						c8.5,1.6,20.7,0.7,24.8,1.5c3.8,0.8,6.1,3.4,6.2,3.5c5.8-6.8,18.9-14.3,23.3-20.4c3.7-5,3-8.1,3-8.3c1.3,1.8,3.6,7.5-0.5,13.1
						C191.6,28.6,186.6,25.9,181.1,35.1L181.1,35.1z"/>
				</g>
			</g>
		</g>
	</g>
</g>
</svg>
